<svg xmlns="http://www.w3.org/2000/svg" width="121.755" height="29.822" viewBox="0 0 121.755 29.822">
    <defs>
        <style>.a{fill:#fff;}</style>
    </defs>
    <g transform="translate(3016.56 -1037.757)">
          <path class="a"
              d="M-3000.913,1053.692l-1.772,1.194a6.088,6.088,0,0,0-5.135-2.652,6.348,6.348,0,0,0-6.522,6.654,6.348,6.348,0,0,0,6.522,6.654,6.031,6.031,0,0,0,5.124-2.64l1.735,1.266a8.126,8.126,0,0,1-6.859,3.411,8.422,8.422,0,0,1-8.74-8.691,8.422,8.422,0,0,1,8.74-8.691A7.963,7.963,0,0,1-3000.913,1053.692Z"/>
        <path class="a"
              d="M-2980.919,1058.888a8.422,8.422,0,0,1-8.74,8.691,8.422,8.422,0,0,1-8.739-8.691,8.421,8.421,0,0,1,8.739-8.691A8.422,8.422,0,0,1-2980.919,1058.888Zm-15.261,0a6.347,6.347,0,0,0,6.521,6.654,6.347,6.347,0,0,0,6.521-6.654,6.347,6.347,0,0,0-6.521-6.654A6.347,6.347,0,0,0-2996.18,1058.888Z"/>
        <path class="a"
              d="M-2962.831,1067.338h-1.917l-10.2-13.26-.012,13.248h-2.122v-16.888h1.917l10.21,13.26V1050.45h2.122Z"/>
        <path class="a"
              d="M-2947.009,1053.777a8.835,8.835,0,0,0-5-1.555c-2.471,0-4.231,1.109-4.231,2.929,0,1.531,1.29,2.315,3.821,2.628l1.484.181c2.856.35,5.3,1.507,5.3,4.484,0,3.364-3.05,5.123-6.7,5.123a10.935,10.935,0,0,1-6.654-2.194l1.157-1.687a9.018,9.018,0,0,0,5.5,1.868c2.519,0,4.5-1.025,4.5-2.929,0-1.567-1.41-2.314-4.038-2.64l-1.567-.193c-2.784-.337-5-1.627-5-4.508,0-3.255,2.893-5.075,6.449-5.075a10.336,10.336,0,0,1,6.076,1.844Z"/>
        <path class="a"
              d="M-2925.292,1058.888a8.422,8.422,0,0,1-8.74,8.691,8.422,8.422,0,0,1-8.739-8.691,8.421,8.421,0,0,1,8.739-8.691A8.422,8.422,0,0,1-2925.292,1058.888Zm-15.261,0a6.348,6.348,0,0,0,6.521,6.654,6.347,6.347,0,0,0,6.521-6.654,6.347,6.347,0,0,0-6.521-6.654A6.348,6.348,0,0,0-2940.553,1058.888Z"/>
        <path class="a" d="M-2909.663,1067.326h-11.79V1050.45h2.122v14.863h9.668Z"/>
        <path class="a" d="M-2894.8,1067.326h-11.982V1050.45h11.862v1.988h-9.74v5.389h9.427v2h-9.427v5.509h9.86Z"/>
      </g>
</svg>
