<svg xmlns="http://www.w3.org/2000/svg" viewBox="0 0 606.58301 134.69085">
    <defs>
        <style>.cls-1{fill:#fff;}</style>
    </defs>
    <g id="Layer_2" data-name="Layer 2">
        <g id="Layer_1-2" data-name="Layer 1">
            <path class="cls-1"
                  d="M79.69482,95.06292c0,23.0293-16.76318,39.62793-39.84765,39.62793C16.76318,134.69085,0,118.09222,0,95.06292S16.76318,55.435,39.84717,55.435C62.93164,55.435,79.69482,72.03363,79.69482,95.06292Zm-69.582,0c0,18.083,12.80616,30.33887,29.73438,30.33887,16.92871,0,29.73486-12.25586,29.73486-30.33887,0-18.082-12.80615-30.33887-29.73486-30.33887C22.919,64.72405,10.11279,76.98089,10.11279,95.06292Z"/>
            <path class="cls-1"
                  d="M106.89453,102.75823v30.77832H97.22119V56.58929h29.23975c17.36816,0,27.20654,8.68457,27.20654,23.084,0,14.40039-9.83838,23.085-27.20654,23.085Zm0-37.04492v27.9209h19.34668c11.37695,0,17.36817-4.61719,17.36817-13.96094,0-9.34277-5.99122-13.96-17.36817-13.96Z"/>
            <path class="cls-1"
                  d="M224.78418,133.53655H170.15186V56.58929h54.08252v9.06934H179.8252V90.226h42.98046V99.35H179.8252V124.4682h44.959Z"/>
            <path class="cls-1"
                  d="M275.07031,56.58929c17.36768,0,26.93115,7.80469,26.93115,21.82031,0,13.35547-10.38769,21.92969-26.87646,21.92969h-.60449l27.09619,33.19726H289.63525l-26.437-33.19726h-9.01367v33.19726h-9.67334V56.58929Zm-20.88574,9.06934V91.54534H274.8501c11.32226,0,17.09326-4.50683,17.09326-13.13574,0-8.51953-5.93555-12.751-17.09326-12.751Z"/>
            <path class="cls-1"
                  d="M384.71582,133.53655H374.32764l-8.46387-20.99511H328.54443l-8.40918,20.99511h-10.0581l31.27344-76.94726h12.03662Zm-52.48926-30.17382h29.95459l-14.9497-37.21Z"/>
            <path class="cls-1" d="M445.11426,65.768H418.897v67.76855h-9.67334V65.768H382.95215V56.58929h62.16211Z"/>
            <path class="cls-1"
                  d="M531.56641,95.06292c0,23.0293-16.76319,39.62793-39.84766,39.62793-23.084,0-39.84766-16.59863-39.84766-39.62793S468.63477,55.435,491.71875,55.435C514.80322,55.435,531.56641,72.03363,531.56641,95.06292Zm-69.582,0c0,18.083,12.80615,30.33887,29.73437,30.33887,16.92871,0,29.73486-12.25586,29.73486-30.33887,0-18.082-12.80615-30.33887-29.73486-30.33887C474.79053,64.72405,461.98438,76.98089,461.98438,95.06292Z"/>
            <path class="cls-1"
                  d="M579.65186,56.58929c17.36767,0,26.93115,7.80469,26.93115,21.82031,0,13.35547-10.3877,21.92969-26.87647,21.92969h-.60449l27.09619,33.19726H594.2168l-26.437-33.19726h-9.01368v33.19726h-9.67334V56.58929Zm-20.88575,9.06934V91.54534h20.66553c11.32227,0,17.09326-4.50683,17.09326-13.13574,0-8.51953-5.93554-12.751-17.09326-12.751Z"/>
        </g>
    </g>
</svg>
